<svg xmlns="http://www.w3.org/2000/svg" width="19.045" height="16.739" viewBox="0 0 19.045 16.739">
  <g id="chat" transform="translate(0 -30.991)">
    <g id="Group_5" data-name="Group 5" transform="translate(0 30.991)">
      <g id="Group_4" data-name="Group 4" transform="translate(0 0)">
        <path id="Path_3" data-name="Path 3" d="M17.371,35.455H13.465v-2.79a1.676,1.676,0,0,0-1.674-1.674H1.674A1.676,1.676,0,0,0,0,32.665v6.7a1.676,1.676,0,0,0,1.674,1.674h.558v1.674a.558.558,0,0,0,.867.464l2.48-1.654v2.305A1.676,1.676,0,0,0,7.253,45.5h5.485l3.207,2.138a.558.558,0,0,0,.867-.464V45.5h.558a1.676,1.676,0,0,0,1.674-1.674v-6.7A1.676,1.676,0,0,0,17.371,35.455ZM5.826,40.013h0L3.348,41.666V40.476a.558.558,0,0,0-.558-.558H1.674a.559.559,0,0,1-.558-.558v-6.7a.559.559,0,0,1,.558-.558H11.792a.559.559,0,0,1,.558.558v6.7a.559.559,0,0,1-.558.558H6.138A.567.567,0,0,0,5.826,40.013Zm12.1,3.811a.559.559,0,0,1-.558.558H16.255a.558.558,0,0,0-.558.558v1.189l-2.48-1.654a.558.558,0,0,0-.309-.094H7.253a.559.559,0,0,1-.558-.558v-2.79h5.1a1.676,1.676,0,0,0,1.674-1.674v-2.79h3.906a.559.559,0,0,1,.558.558Z" transform="translate(0 -30.991)" fill="#fff"/>
      </g>
    </g>
    <g id="Group_7" data-name="Group 7" transform="translate(2.232 36.571)">
      <g id="Group_6" data-name="Group 6" transform="translate(0 0)">
        <path id="Path_4" data-name="Path 4" d="M65.022,180.991H60.558a.558.558,0,1,0,0,1.116h4.464a.558.558,0,0,0,0-1.116Z" transform="translate(-60 -180.991)" fill="#fff"/>
      </g>
    </g>
    <g id="Group_9" data-name="Group 9" transform="translate(2.232 34.339)">
      <g id="Group_8" data-name="Group 8">
        <path id="Path_5" data-name="Path 5" d="M68.444,120.991H60.558a.558.558,0,1,0,0,1.116h7.886a.558.558,0,1,0,0-1.116Z" transform="translate(-60 -120.991)" fill="#fff"/>
      </g>
    </g>
  </g>
</svg>
