<svg xmlns="http://www.w3.org/2000/svg" width="16.764" height="20.48" viewBox="0 0 16.764 20.48">
  <path id="notification" d="M69.852,16.3a3.2,3.2,0,0,1-1-1.317,14.779,14.779,0,0,1-1.043-6.02c0-.008,0-.015,0-.023a5.806,5.806,0,0,0-3.538-5.27V2.281A2.322,2.322,0,0,0,61.914,0h-.2a2.322,2.322,0,0,0-2.356,2.281V3.668a5.806,5.806,0,0,0-3.539,5.293,14.779,14.779,0,0,1-1.043,6.02,3.2,3.2,0,0,1-1,1.317.578.578,0,0,0-.331.663.628.628,0,0,0,.622.469h4.549a3.2,3.2,0,0,0,6.391,0h4.549a.628.628,0,0,0,.622-.469A.578.578,0,0,0,69.852,16.3ZM60.6,2.281A1.1,1.1,0,0,1,61.718,1.2h.2a1.1,1.1,0,0,1,1.115,1.079v1a6.215,6.215,0,0,0-2.425,0v-1Zm1.212,17a1.929,1.929,0,0,1-1.954-1.847H63.77A1.929,1.929,0,0,1,61.816,19.278Zm2.5-3.049h-8.83a6.237,6.237,0,0,0,.325-.552,14.75,14.75,0,0,0,1.254-6.715,4.754,4.754,0,0,1,9.5,0c0,.007,0,.015,0,.022a14.721,14.721,0,0,0,1.254,6.691,6.241,6.241,0,0,0,.325.552Z" transform="translate(-53.434 0)" fill="#fff"/>
</svg>
