<svg id="task_delete" xmlns="http://www.w3.org/2000/svg" width="9.263" height="11.907" viewBox="0 0 9.263 11.907">
  <path id="Path_88" data-name="Path 88" d="M126.183.719h1.99v.335h.719V.672A.672.672,0,0,0,128.221,0h-2.084a.672.672,0,0,0-.672.672v.382h.719Zm0,0" transform="translate(-122.547 0)" fill="#fff"/>
  <path id="Path_89" data-name="Path 89" d="M47.554,167.75H40.807a.317.317,0,0,0-.316.342l.564,6.975a.749.749,0,0,0,.746.689h4.757a.749.749,0,0,0,.746-.689l.564-6.974a.316.316,0,0,0-.315-.342Zm-5.113,7.262h-.023a.359.359,0,0,1-.358-.337l-.353-5.726a.359.359,0,0,1,.717-.044l.353,5.726a.359.359,0,0,1-.336.381Zm2.1-.359a.359.359,0,0,1-.719,0v-5.726a.359.359,0,0,1,.719,0Zm2.111-5.7-.337,5.726a.359.359,0,0,1-.358.338h-.021a.359.359,0,0,1-.338-.38l.337-5.726a.359.359,0,0,1,.717.042Zm0,0" transform="translate(-39.549 -163.849)" fill="#fff"/>
  <path id="Path_90" data-name="Path 90" d="M9.248,77.231l-.236-.707a.457.457,0,0,0-.434-.312H.685a.457.457,0,0,0-.433.312l-.236.707a.3.3,0,0,0,.281.39h8.67a.293.293,0,0,0,.157-.045.3.3,0,0,0,.124-.345Zm0,0" transform="translate(0 -74.439)" fill="#fff"/>
</svg>
