<svg xmlns="http://www.w3.org/2000/svg" width="18.733" height="18.733" viewBox="0 0 18.733 18.733">
  <path id="tasks" d="M5.758,5.415H2.708A2.708,2.708,0,0,1,2.708,0H5.781a.732.732,0,1,1,0,1.464H2.708a1.244,1.244,0,1,0,0,2.488H5.758a.732.732,0,0,1,0,1.464ZM18.733,2.708A2.711,2.711,0,0,0,16.026,0H8.708a.732.732,0,0,0,0,1.464h7.318a1.244,1.244,0,0,1,0,2.488H8.685a.732.732,0,1,0,0,1.464h7.34A2.711,2.711,0,0,0,18.733,2.708ZM18.7,9.367a2.711,2.711,0,0,0-2.708-2.708H14.965a.732.732,0,0,0,0,1.464h1.024a1.244,1.244,0,1,1,0,2.488H14.965a.732.732,0,0,0,0,1.464h1.024A2.711,2.711,0,0,0,18.7,9.367Zm-5.927,1.976a.732.732,0,0,0-.732-.732H2.708a1.244,1.244,0,0,1,0-2.488h9.33a.732.732,0,0,0,0-1.464H2.708a2.708,2.708,0,1,0,0,5.415h9.33A.732.732,0,0,0,12.769,11.342ZM18.7,16.026a2.711,2.711,0,0,0-2.708-2.708H10.5a.732.732,0,1,0,0,1.464h5.488a1.244,1.244,0,1,1,0,2.488H10.5a.732.732,0,1,0,0,1.464h5.488A2.711,2.711,0,0,0,18.7,16.026ZM8.306,18a.732.732,0,0,0-.732-.732H2.708a1.244,1.244,0,1,1,0-2.488H7.574a.732.732,0,0,0,0-1.464H2.708a2.708,2.708,0,0,0,0,5.415H7.574A.732.732,0,0,0,8.306,18Z" fill="#fff"/>
</svg>
