<svg xmlns="http://www.w3.org/2000/svg" width="13.836" height="7.972" viewBox="0 0 13.836 7.972">
  <g id="eye_1_" data-name="eye (1)" transform="translate(0 -108.496)">
    <g id="Group_336" data-name="Group 336" transform="translate(0 108.496)">
      <g id="Group_335" data-name="Group 335" transform="translate(0 0)">
        <path id="Path_92" data-name="Path 92" d="M13.633,112.229a12.435,12.435,0,0,0-1.943-1.858,10.183,10.183,0,0,0-2.119-1.281,6.66,6.66,0,0,0-2.543-.592l-.11,0-.11,0a6.659,6.659,0,0,0-2.543.592,10.181,10.181,0,0,0-2.119,1.281A12.436,12.436,0,0,0,.2,112.229l-.2.253.2.253a12.436,12.436,0,0,0,1.943,1.858,10.183,10.183,0,0,0,2.119,1.281,6.66,6.66,0,0,0,2.543.592l.11,0,.11,0a6.659,6.659,0,0,0,2.543-.592,10.181,10.181,0,0,0,2.119-1.281,12.436,12.436,0,0,0,1.943-1.858l.2-.253ZM3.519,114.562a10.41,10.41,0,0,1-.863-.6,12.411,12.411,0,0,1-1.6-1.481A12.411,12.411,0,0,1,2.656,111a10.4,10.4,0,0,1,.863-.6,3.978,3.978,0,0,0,0,4.16Zm3.5,1.093-.1,0-.1,0a3.175,3.175,0,0,1,0-6.347l.1,0,.1,0a3.175,3.175,0,0,1,0,6.347Zm4.164-1.692a10.394,10.394,0,0,1-.863.6,3.978,3.978,0,0,0,0-4.16,10.422,10.422,0,0,1,.863.6,12.408,12.408,0,0,1,1.6,1.481A12.408,12.408,0,0,1,11.18,113.963Z" transform="translate(0 -108.496)" fill="#fff"/>
      </g>
    </g>
    <g id="Group_338" data-name="Group 338" transform="translate(4.612 110.177)">
      <g id="Group_337" data-name="Group 337" transform="translate(0 0)">
        <path id="Path_93" data-name="Path 93" d="M172.991,170.685a2.305,2.305,0,1,0,2.305,2.305A2.308,2.308,0,0,0,172.991,170.685Zm0,3.8a1.495,1.495,0,1,1,1.495-1.495A1.5,1.5,0,0,1,172.991,174.485Z" transform="translate(-170.686 -170.685)" fill="#fff"/>
      </g>
    </g>
  </g>
</svg>
