<svg xmlns="http://www.w3.org/2000/svg" width="109.08" height="25.526" viewBox="0 0 109.08 25.526">
  <g id="amuze_logo" transform="translate(-127 -663)">
    <g id="Layer_x0020_1" transform="translate(145.347 663)">
      <path id="Path_1" data-name="Path 1" d="M12.876,12.607,9.053,3.554,5.231,12.607,4.56,14.15h0L1.677,20.923H0L9.053,0l8.986,20.923H16.363l-2.951-6.974Zm6.773,8.316V.939h1.677l7.444,9.187L36.213.939h1.677V20.923H36.28V3.286L28.769,12.54,21.258,3.286V20.923Zm22.734-8.316a7.069,7.069,0,0,0,1.811,5.1,6.316,6.316,0,0,0,4.828,1.878A6.166,6.166,0,0,0,53.783,17.7a7.069,7.069,0,0,0,1.811-5.1V.939H57.27v11.6a8.874,8.874,0,0,1-2.213,6.371,7.933,7.933,0,0,1-6.035,2.347,7.739,7.739,0,0,1-6.035-2.347,8.874,8.874,0,0,1-2.213-6.371V.939h1.609Zm16.832,8.316v-.671L73.9,2.28H60.354V.939H76.449l.335.6L61.9,19.515H76.449v1.408Zm20.521,0V.939h10.8V2.213H81.344v7.913H90V11.4H81.344v8.181h9.388v1.341Z" fill="#333"/>
    </g>
    <text id="by" transform="translate(127 685.526)" fill="#333" font-size="13" font-family="Roboto-Regular, Roboto"><tspan x="0" y="0">by</tspan></text>
  </g>
</svg>
