<svg id="logo" xmlns="http://www.w3.org/2000/svg" width="168.381" height="24.501" viewBox="0 0 168.381 24.501">
  <g id="_2759362245136">
    <path id="Path_8" data-name="Path 8" d="M62.006,161.143h-3.62v-7.675c0-2.317-.84-3.5-2.52-3.5a2.558,2.558,0,0,0-2.085.956,3.732,3.732,0,0,0-.811,2.433v7.791H49.35v-13.67h3.62v2.2h.058a4.814,4.814,0,0,1,4.431-2.52c3.041,0,4.547,1.854,4.547,5.619ZM48.1,150.8a3.4,3.4,0,0,0-1.767-.434,2.581,2.581,0,0,0-2.2,1.13,5.125,5.125,0,0,0-.811,2.983v6.661h-3.62v-13.67h3.62v2.635h.029c.666-1.911,1.882-2.867,3.62-2.867a2.881,2.881,0,0,1,1.129.174Zm-21.663-2.462a9.565,9.565,0,0,1,2.4-.869,11.412,11.412,0,0,1,2.635-.319c3.707,0,5.561,1.854,5.561,5.619v8.37H33.566v-2h-.058a4.482,4.482,0,0,1-4.113,2.346,4.319,4.319,0,0,1-3.128-1.13,3.842,3.842,0,0,1-1.158-2.983c0-2.607,1.564-4.113,4.663-4.547l3.823-.492a2.3,2.3,0,0,0-2.578-2.635,7.827,7.827,0,0,0-4.576,1.535Zm4.431,6.545c-1.564.2-2.346.9-2.346,2.114a1.646,1.646,0,0,0,.55,1.3,2.117,2.117,0,0,0,1.506.521,2.782,2.782,0,0,0,2.143-.927,3.24,3.24,0,0,0,.869-2.317V154.54Zm-6.6.434H15.147c.145,2.346,1.477,3.5,3.939,3.5a7.067,7.067,0,0,0,4.084-1.216v2.78a9.8,9.8,0,0,1-4.894,1.1,6.509,6.509,0,0,1-4.952-1.854,7.109,7.109,0,0,1-1.8-5.155,7.443,7.443,0,0,1,1.911-5.3,6.261,6.261,0,0,1,4.779-2.027,5.76,5.76,0,0,1,4.46,1.738,6.912,6.912,0,0,1,1.593,4.837Zm-3.417-2.375c0-2.172-.9-3.244-2.664-3.244a2.639,2.639,0,0,0-1.969.869,4.2,4.2,0,0,0-1.072,2.375Zm-9.9,8.2H0V142H3.707v16.074h7.24Z" transform="translate(0 -137.887)" fill="#ff3d57" fill-rule="evenodd"/>
    <path id="Path_9" data-name="Path 9" d="M3450.492,181.351h-9.152c.145,2.346,1.477,3.5,3.968,3.5a7.04,7.04,0,0,0,4.054-1.216v2.78a9.794,9.794,0,0,1-4.894,1.1,6.509,6.509,0,0,1-4.952-1.854,7.1,7.1,0,0,1-1.767-5.155,7.554,7.554,0,0,1,1.883-5.3,6.262,6.262,0,0,1,4.779-2.027,5.719,5.719,0,0,1,4.46,1.738,6.924,6.924,0,0,1,1.622,4.837Zm-3.446-2.375c0-2.172-.869-3.244-2.664-3.244a2.639,2.639,0,0,0-1.969.869,4.2,4.2,0,0,0-1.072,2.375Zm-11.15,8.2H3432.3v-7.82c0-2.23-.84-3.36-2.462-3.36a2.277,2.277,0,0,0-1.882,1.014,3.967,3.967,0,0,0-.782,2.462v7.7h-3.62v-7.935c0-2.172-.811-3.244-2.433-3.244a2.292,2.292,0,0,0-1.882.956,4.1,4.1,0,0,0-.753,2.549v7.675h-3.62V173.5h3.62v2.143h.029a4.9,4.9,0,0,1,4.4-2.462,3.9,3.9,0,0,1,3.938,2.607,4.99,4.99,0,0,1,4.547-2.607c3.012,0,4.489,1.825,4.489,5.5Zm-37.476-6.748a7.17,7.17,0,0,1,1.969-5.3,7.292,7.292,0,0,1,5.358-1.94,7,7,0,0,1,5.155,1.882,6.928,6.928,0,0,1,1.911,5.126,7.285,7.285,0,0,1-1.969,5.329,7.135,7.135,0,0,1-12.424-5.1Zm3.649-.058c0,2.867,1.217,4.315,3.591,4.315,2.317,0,3.446-1.477,3.446-4.431,0-2.838-1.158-4.257-3.446-4.257a3.235,3.235,0,0,0-2.635,1.158A4.946,4.946,0,0,0,3402.069,180.367Zm-6.111,6.806h-3.707v-8.051h-8.515v8.051H3380V168h3.736v7.877h8.515V168h3.707Z" transform="translate(-3282.111 -163.134)" fill="#00d748" fill-rule="evenodd"/>
    <path id="Path_10" data-name="Path 10" d="M2203.406,421.775l-.145.579c-.406.174-.753.29-.985.376a2.743,2.743,0,0,1-.869.116,1.6,1.6,0,0,1-1.159-.377,1.139,1.139,0,0,1-.434-.927c0-.087.029-.232.029-.376a2.906,2.906,0,0,1,.115-.579l.435-1.68a3.926,3.926,0,0,0,.115-.492,1.643,1.643,0,0,0,.029-.348.738.738,0,0,0-.145-.463.637.637,0,0,0-.492-.174,1.334,1.334,0,0,0-.608.2,5.854,5.854,0,0,0-.753.579l-1.013,4.547h-2.085l.869-3.852c.058-.2.087-.377.116-.492a1.67,1.67,0,0,0,.029-.348.737.737,0,0,0-.145-.463.6.6,0,0,0-.492-.174,1.721,1.721,0,0,0-.55.145,4,4,0,0,0-.869.637l-1.042,4.547H2191.3l.9-3.881c0-.116.058-.261.087-.463a3.405,3.405,0,0,0,.058-.463.71.71,0,0,0-.145-.492.782.782,0,0,0-.55-.145,1.139,1.139,0,0,0-.406.087.977.977,0,0,0-.347.116l.116-.579a8.069,8.069,0,0,1,.985-.348,3.394,3.394,0,0,1,.869-.145,1.433,1.433,0,0,1,1.1.319,1.581,1.581,0,0,1,.492.782h.029a6.887,6.887,0,0,1,1.217-.869,2.939,2.939,0,0,1,1.361-.29,1.512,1.512,0,0,1,1.043.348,1.132,1.132,0,0,1,.463.84h.058a7.794,7.794,0,0,1,1.246-.9,2.7,2.7,0,0,1,1.3-.29,1.5,1.5,0,0,1,1.1.376,1.223,1.223,0,0,1,.376.927v.405a4.685,4.685,0,0,1-.116.55l-.463,1.767a2.446,2.446,0,0,0-.116.492c-.029.2-.058.348-.058.434a.6.6,0,0,0,.174.492.837.837,0,0,0,.55.145,1.43,1.43,0,0,0,.434-.087A.978.978,0,0,0,2203.406,421.775ZM2190.6,419a3.909,3.909,0,0,1-.318,1.506,3.387,3.387,0,0,1-.84,1.245,4.975,4.975,0,0,1-1.39.9,5.076,5.076,0,0,1-1.8.29,3.26,3.26,0,0,1-2.172-.7,2.454,2.454,0,0,1-.811-1.94,3.6,3.6,0,0,1,.318-1.564,3.726,3.726,0,0,1,.869-1.245,3.827,3.827,0,0,1,1.333-.811,5,5,0,0,1,1.738-.319,3.4,3.4,0,0,1,2.259.7A2.466,2.466,0,0,1,2190.6,419Zm-2.23-.724a1.787,1.787,0,0,0-.232-1.072.842.842,0,0,0-.724-.348,1.311,1.311,0,0,0-.869.376,2.6,2.6,0,0,0-.666,1.158,8.128,8.128,0,0,0-.319,1.332,11.323,11.323,0,0,0-.087,1.3,1.869,1.869,0,0,0,.26,1.1.843.843,0,0,0,.724.348,1.165,1.165,0,0,0,.9-.434,3.6,3.6,0,0,0,.58-1.043,8.137,8.137,0,0,0,.347-1.332A11.943,11.943,0,0,0,2188.375,418.271Zm-5.126-.579a1.82,1.82,0,0,1-.087.55,1.526,1.526,0,0,1-.232.434,1.3,1.3,0,0,1-.405.319.975.975,0,0,1-.551.116,1.17,1.17,0,0,1-.753-.232.751.751,0,0,1-.26-.521,1.016,1.016,0,0,1,.087-.463,3.453,3.453,0,0,1,.232-.608,2.529,2.529,0,0,0-.724.434c-.2.174-.376.376-.579.579l-.985,4.46h-2.056l.84-3.881c.029-.116.058-.261.116-.463a2.852,2.852,0,0,0,.058-.463.714.714,0,0,0-.145-.492.783.783,0,0,0-.55-.145,1.137,1.137,0,0,0-.406.087.975.975,0,0,0-.347.116l.029-.2h-.927c-.2,1.014-.376,1.911-.522,2.664-.173.782-.347,1.564-.55,2.4a4.788,4.788,0,0,1-.521,1.187,4.131,4.131,0,0,1-.84,1.014,3.835,3.835,0,0,1-1.13.7,3.1,3.1,0,0,1-1.245.261,2.888,2.888,0,0,1-.927-.116,1.951,1.951,0,0,1-.55-.29,1.1,1.1,0,0,1-.261-.376,1.127,1.127,0,0,1-.058-.434.9.9,0,0,1,.26-.637.96.96,0,0,1,.7-.29.978.978,0,0,1,.579.174,3.077,3.077,0,0,1,.435.434c.116.174.2.348.319.55.087.2.145.348.2.463a2.363,2.363,0,0,0,.492-.869,11.84,11.84,0,0,0,.434-1.535l1.129-5.3h-1.216l.145-.666h1.187l.116-.463a3.68,3.68,0,0,1,.492-1.158,4.018,4.018,0,0,1,.84-1.014,3.636,3.636,0,0,1,1.1-.724,3.249,3.249,0,0,1,1.245-.29,4.032,4.032,0,0,1,.927.116,1.415,1.415,0,0,1,.55.29,1.1,1.1,0,0,1,.261.376,2.284,2.284,0,0,1,.058.405.627.627,0,0,1-.058.319,1.561,1.561,0,0,1-.145.319c-.116.087-.2.174-.289.232a1.017,1.017,0,0,1-.464.087.92.92,0,0,1-.579-.174,1.16,1.16,0,0,1-.405-.434,2.1,2.1,0,0,1-.319-.55c-.087-.174-.145-.348-.2-.463a2.429,2.429,0,0,0-.463.869,11.15,11.15,0,0,0-.435,1.564l-.174.7h1.593v.029l.29-.087a3.2,3.2,0,0,1,.869-.145,1.669,1.669,0,0,1,1.1.29,1.382,1.382,0,0,1,.492.811h.058a5.094,5.094,0,0,1,1.042-.9,1.8,1.8,0,0,1,.927-.261,1.157,1.157,0,0,1,.839.319A1.433,1.433,0,0,1,2183.249,417.692Z" transform="translate(-2106.183 -401.039)" fill="#333" fill-rule="evenodd"/>
    <path id="Path_11" data-name="Path 11" d="M2324,3.591,2338.191,14.6l.2-.29,13.96-10.832-1.1-1.448L2338.1,12.222,2325.13,2.143Zm14.1,3.62a12.28,12.28,0,0,0-2.056-4.2,10.679,10.679,0,0,0-.724-.84c-.318-.261-.492-.55-.811-.782A13.173,13.173,0,0,0,2332.631,0l.289,1.969c-.463-.29-.9-.637-1.477-.985a11.68,11.68,0,0,0-1.708-.84l.319,2.143A24.294,24.294,0,0,0,2326.665.9l.261,1.622c.116.116.145.116.347.174a1.636,1.636,0,0,1,.347.116l-.116-.9a12.207,12.207,0,0,1,2.635,1.245,16.222,16.222,0,0,1,5.01,4.6l1.738,1.8a22.144,22.144,0,0,0-2.751-4.113l-3.3-2.693a9.94,9.94,0,0,1-.261-1.448,12.62,12.62,0,0,1,3.852,3.07,20.891,20.891,0,0,1,2.9,5.155l.406.608A20.191,20.191,0,0,0,2335.15,4.2c-1.216-1.564-1.535-1.043-1.622-2.722a4.188,4.188,0,0,1,.782.637,9.273,9.273,0,0,1,1.94,2.4,10.152,10.152,0,0,1,1.448,4.373l.435,1.535.2-.753a12.841,12.841,0,0,1,2.78-6.748,14.852,14.852,0,0,1,1.361-1.332c.174-.116,0,0,.2-.087-.29,1.767.058.753-.956,1.94a14.028,14.028,0,0,0-2.317,3.388c-.319.666-.724,2.693-.985,3.388l.782-1.274a13.151,13.151,0,0,1,6.4-7.646,10.429,10.429,0,0,1-.2,1.419l-1.969,1.448a14.372,14.372,0,0,0-2.49,2.607,20.579,20.579,0,0,0-1.767,2.867c.29,0,1.448-1.216,1.651-1.506a15.829,15.829,0,0,1,7.877-6.227l-.116.9.695-.232.26-1.68a12.85,12.85,0,0,0-1.766.637c-.29.116-.551.261-.84.376a6.321,6.321,0,0,1-.782.376L2346.5.145a11.142,11.142,0,0,0-1.68.811c-.29.174-.492.29-.782.492a6.912,6.912,0,0,1-.753.521l.29-1.969a12.265,12.265,0,0,0-2.607,2.114A10.648,10.648,0,0,0,2338.481,6C2338.336,6.4,2338.249,6.806,2338.1,7.211Z" transform="translate(-2256.694)" fill="#ffca00" fill-rule="evenodd"/>
  </g>
</svg>
